<svg width="149" height="51" viewBox="0 0 149 51" fill="none" xmlns="http://www.w3.org/2000/svg">
<path d="M6.88075 27.2626C2.82528 27.2626 0.780215 24.4896 0.780215 21.3007C0.780215 19.221 1.64677 16.9679 3.4492 15.1655L8.61386 16.552C7.12339 18.0078 6.2915 19.8449 6.2915 21.3354C6.2915 23.4151 7.67798 24.247 9.72305 24.247C11.8721 24.247 14.7491 23.3458 17.5567 21.994C17.3834 21.0234 17.2447 20.0529 17.2447 19.013C17.2447 14.2643 20.9189 10.5555 26.2222 10.5208H26.2916H26.3262C28.7179 10.5208 30.2084 10.7981 30.2084 12.0459C30.2084 14.403 26.3262 18.3544 21.3695 21.6473C22.8253 25.1482 25.425 28.7877 25.425 32.8432C25.425 38.4585 19.6711 41.2661 14.1598 41.2661C9.16846 41.2661 4.38508 38.9091 4.38508 34.1257C4.38508 33.7098 4.4544 33.2245 4.52373 32.7392L9.54974 30.5902C9.23778 31.63 9.09913 32.6006 9.09913 33.4671C9.09913 37.4879 12.2187 39.5677 15.2343 39.5677C18.042 39.5677 20.7803 37.7652 20.7803 34.0217C20.7803 30.3475 19.0472 27.1586 18.0073 23.6924C14.1598 25.7721 10.1043 27.2626 6.88075 27.2626ZM20.4683 17.7305C20.4683 18.5277 20.607 19.3596 20.8496 20.1569C24.4891 17.9038 27.4007 15.0962 27.4007 13.0511C27.4007 12.4965 26.9848 12.4272 26.2916 12.4272C22.8253 12.4619 20.4683 14.9229 20.4683 17.7305ZM33.3662 38.3892C31.4251 38.3892 30.0733 37.4186 29.588 35.5815C28.6521 39.2211 27.9589 43.0686 27.4736 47.0547L23.1062 45.5989L30.4545 21.474L33.7128 22.4099C34.8566 21.1967 36.0698 20.4688 37.3176 20.4688C39.9866 20.4688 41.2691 23.4844 41.2691 27.02C41.2691 32.15 38.5655 38.3892 33.3662 38.3892ZM30.5239 32.9125C30.5239 33.9524 30.9398 34.819 32.1183 34.819C35.3072 34.819 37.6296 29.8623 37.6296 26.5C37.6296 24.8016 37.0403 23.5191 35.6539 23.5191C34.2327 23.5191 33.0195 24.8016 32.0837 27.2973C31.5984 28.6491 31.1478 30.0009 30.7318 31.3874C30.5932 31.9073 30.5239 32.4273 30.5239 32.9125ZM46.069 38.3892C43.6773 38.3892 41.5283 36.3441 41.5283 32.5659C41.5283 25.9801 46.5196 20.6075 50.1245 20.6075C51.7883 20.6075 53.0708 21.6473 53.5214 24.1084L54.4226 21.474L58.4088 22.4099C56.7796 26.9506 55.2198 31.8034 55.2198 33.1898C55.2198 34.5763 55.6358 35.1309 56.2944 35.1309C57.8195 35.1309 59.5179 31.8727 60.5925 28.9264H61.5283C59.6219 34.9923 57.1956 38.3892 54.4573 38.3892C52.8628 38.3892 51.615 37.2453 51.303 34.7496C49.9165 37.2106 47.9408 38.3892 46.069 38.3892ZM45.8264 32.15C45.8264 34.195 46.6929 35.0963 47.7675 35.0963C49.2233 35.0963 51.0604 33.4325 51.615 30.7635C51.7883 30.0009 51.9963 29.169 52.2389 28.3025C52.5162 27.2279 52.6548 26.3614 52.6548 25.6682C52.6548 24.143 52.0309 23.4498 51.1644 23.4498C49.154 23.4498 45.8264 27.0546 45.8264 32.15ZM66.0263 38.3892C64.1892 38.3892 62.4908 36.6907 62.4908 33.3285C62.4908 30.5209 63.6346 27.02 64.8478 24.0044C64.3625 24.2123 63.8079 24.3163 63.288 24.3163C63.08 24.3163 62.872 24.3163 62.6641 24.2817C61.8322 26.4307 61.0696 28.3371 60.2031 30.6248H59.2325C60.2031 28.2331 60.723 26.1881 61.2776 23.6924C60.7923 23.3111 60.4457 22.7912 60.4457 22.0633L62.3174 20.5035C62.5947 21.37 63.9466 22.4792 65.0558 22.4792C65.2291 22.4792 65.3677 22.4446 65.5064 22.4099L65.9916 21.3007L69.7698 22.4792C67.7247 27.1586 66.7889 31.0754 66.7889 33.1898C66.7889 34.5763 67.2048 35.1309 67.8634 35.1309C69.3885 35.1309 71.087 31.8727 72.1615 28.9264H73.0974C71.191 34.9923 68.7646 38.3892 66.0263 38.3892ZM68.5745 38.3892L75.4376 15.0962L79.7011 16.1361L75.403 30.0009C76.2002 28.8917 77.2054 28.0598 78.1413 27.5746C78.9385 23.2418 81.2609 20.7115 84.9697 20.7115L83.8605 24.2123C81.3302 24.2123 79.9437 25.2175 79.0771 27.1933C79.3891 27.0893 79.6664 27.0546 79.909 27.0546C81.5728 27.0546 82.4047 28.3025 82.4047 32.254C82.4047 34.5763 82.8207 35.1309 83.4446 35.1309C84.9697 35.1309 86.7028 31.8727 87.7773 28.9264H88.7132C86.7721 34.9923 84.3804 38.3892 81.6421 38.3892C79.805 38.3892 78.4186 36.8294 78.4186 33.5018C78.4186 32.4619 78.4186 29.6543 77.448 29.6543C76.5468 29.6543 75.0217 31.4914 74.1898 33.8484L72.7686 38.3892H68.5745ZM90.956 38.3892C88.079 38.3892 85.4447 36.1708 85.4447 32.3926C85.4447 25.1829 90.9906 20.7115 94.6995 20.7115C96.5019 20.7115 97.8884 21.8553 97.8884 24.247C97.8884 27.6092 94.6995 32.4273 90.0894 32.6006C90.6093 34.195 91.8225 35.1656 93.313 35.1656C95.2541 35.1656 97.6458 33.3978 99.2749 28.9264H100.211C98.0964 35.5469 94.1795 38.3892 90.956 38.3892ZM89.8121 30.6248C89.8468 31.1794 90.0201 31.3874 90.436 31.3874C92.3771 31.3874 94.9768 28.6491 94.9768 25.4948C94.9768 24.8709 94.7341 24.455 94.0756 24.455C92.0998 24.455 89.8814 26.9853 89.8121 30.6248ZM103.193 38.3892C100.316 38.3892 97.682 36.1708 97.682 32.3926C97.682 25.1829 103.228 20.7115 106.937 20.7115C108.739 20.7115 110.126 21.8553 110.126 24.247C110.126 27.6092 106.937 32.4273 102.327 32.6006C102.847 34.195 104.06 35.1656 105.55 35.1656C107.491 35.1656 109.883 33.3978 111.512 28.9264H112.448C110.334 35.5469 106.417 38.3892 103.193 38.3892ZM102.049 30.6248C102.084 31.1794 102.257 31.3874 102.673 31.3874C104.614 31.3874 107.214 28.6491 107.214 25.4948C107.214 24.8709 106.972 24.455 106.313 24.455C104.337 24.455 102.119 26.9853 102.049 30.6248Z" fill="white"/>
<mask id="path-2-outside-1_1797_2172" maskUnits="userSpaceOnUse" x="109.787" y="7" width="39" height="41" fill="black">
<rect fill="white" x="109.787" y="7" width="39" height="41"/>
<path d="M114.421 38V21.1767H111.538V16.9313H114.421V15.3319C114.421 11.1853 116.376 9.25027 121.391 9.25027C122.458 9.25027 123.662 9.36875 124.334 9.50697V13.3179C123.919 13.2389 123.346 13.1994 122.774 13.1994C120.878 13.1994 120.049 14.0287 120.049 15.5294V16.9313H124.255V21.1767H120.187V38H114.421ZM129.192 45.839C128.994 45.839 127.197 45.8193 127.02 45.7798V41.337C127.197 41.3765 128.244 41.3765 128.461 41.3765C130.574 41.3765 131.621 40.7052 132.015 39.0268C132.015 38.9478 132.233 38.0987 132.193 38.0197L124.828 16.8326H131.166L135.668 33.3795H135.767L140.269 16.8326H146.351L139.065 38.4739C137.248 43.904 134.602 45.839 129.192 45.839Z"/>
</mask>
<path d="M114.421 38V21.1767H111.538V16.9313H114.421V15.3319C114.421 11.1853 116.376 9.25027 121.391 9.25027C122.458 9.25027 123.662 9.36875 124.334 9.50697V13.3179C123.919 13.2389 123.346 13.1994 122.774 13.1994C120.878 13.1994 120.049 14.0287 120.049 15.5294V16.9313H124.255V21.1767H120.187V38H114.421ZM129.192 45.839C128.994 45.839 127.197 45.8193 127.02 45.7798V41.337C127.197 41.3765 128.244 41.3765 128.461 41.3765C130.574 41.3765 131.621 40.7052 132.015 39.0268C132.015 38.9478 132.233 38.0987 132.193 38.0197L124.828 16.8326H131.166L135.668 33.3795H135.767L140.269 16.8326H146.351L139.065 38.4739C137.248 43.904 134.602 45.839 129.192 45.839Z" fill="white"/>
<path d="M114.421 38H112.943V39.4779H114.421V38ZM114.421 21.1767H115.899V19.6988H114.421V21.1767ZM111.538 21.1767H110.061V22.6545H111.538V21.1767ZM111.538 16.9313V15.4535H110.061V16.9313H111.538ZM114.421 16.9313V18.4092H115.899V16.9313H114.421ZM124.334 9.50697H125.811V8.30238L124.632 8.05947L124.334 9.50697ZM124.334 13.3179L124.057 14.7696L125.811 15.1038V13.3179H124.334ZM120.049 16.9313H118.571V18.4092H120.049V16.9313ZM124.255 16.9313H125.732V15.4535H124.255V16.9313ZM124.255 21.1767V22.6545H125.732V21.1767H124.255ZM120.187 21.1767V19.6988H118.709V21.1767H120.187ZM120.187 38V39.4779H121.665V38H120.187ZM114.421 38H115.899V21.1767H114.421H112.943V38H114.421ZM114.421 21.1767V19.6988H111.538V21.1767V22.6545H114.421V21.1767ZM111.538 21.1767H113.016V16.9313H111.538H110.061V21.1767H111.538ZM111.538 16.9313V18.4092H114.421V16.9313V15.4535H111.538V16.9313ZM114.421 16.9313H115.899V15.3319H114.421H112.943V16.9313H114.421ZM114.421 15.3319H115.899C115.899 13.4652 116.339 12.4412 117.013 11.8356C117.726 11.1949 119.022 10.7281 121.391 10.7281V9.25027V7.77242C118.746 7.77242 116.556 8.27314 115.038 9.63669C113.481 11.0353 112.943 13.0521 112.943 15.3319H114.421ZM121.391 9.25027V10.7281C122.381 10.7281 123.483 10.8407 124.036 10.9545L124.334 9.50697L124.632 8.05947C123.841 7.8968 122.534 7.77242 121.391 7.77242V9.25027ZM124.334 9.50697H122.856V13.3179H124.334H125.811V9.50697H124.334ZM124.334 13.3179L124.61 11.8661C124.069 11.7631 123.395 11.7216 122.774 11.7216V13.1994V14.6773C123.298 14.6773 123.769 14.7147 124.057 14.7696L124.334 13.3179ZM122.774 13.1994V11.7216C121.644 11.7216 120.543 11.9644 119.719 12.6971C118.86 13.4603 118.571 14.5102 118.571 15.5294H120.049H121.527C121.527 15.048 121.652 14.9328 121.682 14.9062C121.746 14.8491 122.008 14.6773 122.774 14.6773V13.1994ZM120.049 15.5294H118.571V16.9313H120.049H121.527V15.5294H120.049ZM120.049 16.9313V18.4092H124.255V16.9313V15.4535H120.049V16.9313ZM124.255 16.9313H122.777V21.1767H124.255H125.732V16.9313H124.255ZM124.255 21.1767V19.6988H120.187V21.1767V22.6545H124.255V21.1767ZM120.187 21.1767H118.709V38H120.187H121.665V21.1767H120.187ZM120.187 38V36.5221H114.421V38V39.4779H120.187V38ZM127.02 45.7798H125.542V46.9653L126.699 47.2225L127.02 45.7798ZM127.02 41.337L127.34 39.8944L125.542 39.4947V41.337H127.02ZM132.015 39.0268L133.454 39.3653L133.493 39.1983V39.0268H132.015ZM132.193 38.0197L130.797 38.505L130.829 38.5952L130.871 38.6807L132.193 38.0197ZM124.828 16.8326V15.3548H122.75L123.432 17.3179L124.828 16.8326ZM131.166 16.8326L132.592 16.4446L132.296 15.3548H131.166V16.8326ZM135.668 33.3795L134.242 33.7675L134.539 34.8574H135.668V33.3795ZM135.767 33.3795V34.8574H136.897L137.193 33.7675L135.767 33.3795ZM140.269 16.8326V15.3548H139.14L138.843 16.4446L140.269 16.8326ZM146.351 16.8326L147.751 17.3042L148.408 15.3548H146.351V16.8326ZM139.065 38.4739L137.664 38.0023L137.663 38.005L139.065 38.4739ZM129.192 45.839V44.3612C129.107 44.3612 128.62 44.3565 128.128 44.3467C127.883 44.3418 127.646 44.3358 127.462 44.3289C127.369 44.3254 127.299 44.322 127.252 44.3189C127.157 44.3128 127.23 44.3127 127.34 44.3371L127.02 45.7798L126.699 47.2225C126.854 47.2568 127.022 47.2659 127.06 47.2684C127.146 47.274 127.247 47.2786 127.351 47.2825C127.56 47.2904 127.818 47.2968 128.069 47.3018C128.569 47.3118 129.079 47.3169 129.192 47.3169V45.839ZM127.02 45.7798H128.498V41.337H127.02H125.542V45.7798H127.02ZM127.02 41.337L126.699 42.7797C126.896 42.8235 127.137 42.8324 127.225 42.8363C127.371 42.8427 127.541 42.8467 127.702 42.8492C128.026 42.8544 128.352 42.8544 128.461 42.8544V41.3765V39.8987C128.353 39.8987 128.047 39.8986 127.749 39.8939C127.599 39.8915 127.461 39.8881 127.354 39.8834C127.301 39.8811 127.265 39.8788 127.245 39.8772C127.203 39.8737 127.255 39.8754 127.34 39.8944L127.02 41.337ZM128.461 41.3765V42.8544C129.64 42.8544 130.769 42.6736 131.694 42.0664C132.672 41.4242 133.197 40.4577 133.454 39.3653L132.015 39.0268L130.577 38.6883C130.439 39.2743 130.244 39.4826 130.071 39.5957C129.846 39.7438 129.395 39.8987 128.461 39.8987V41.3765ZM132.015 39.0268H133.493C133.493 39.0978 133.488 39.152 133.486 39.1706C133.483 39.1952 133.481 39.2135 133.479 39.2218C133.477 39.2382 133.475 39.246 133.477 39.2393C133.479 39.2269 133.484 39.2016 133.494 39.1575C133.507 39.0972 133.543 38.9337 133.565 38.8308C133.59 38.7118 133.62 38.5652 133.641 38.4343C133.651 38.3723 133.664 38.2817 133.671 38.1854C133.674 38.1389 133.679 38.0584 133.673 37.9625C133.671 37.9137 133.664 37.8402 133.648 37.753C133.633 37.6744 133.599 37.5269 133.515 37.3588L132.193 38.0197L130.871 38.6807C130.79 38.5176 130.758 38.3764 130.744 38.3057C130.729 38.2264 130.724 38.1622 130.722 38.1239C130.718 38.0491 130.722 37.995 130.723 37.9795C130.725 37.945 130.728 37.9344 130.723 37.9643C130.714 38.0173 130.698 38.1027 130.674 38.2157C130.662 38.2692 130.65 38.3237 130.638 38.3784C130.627 38.4314 130.614 38.4873 130.604 38.5369C130.594 38.5848 130.582 38.6394 130.573 38.6889C130.568 38.7131 130.562 38.7473 130.556 38.7848C130.553 38.8037 130.55 38.8313 130.546 38.8637C130.543 38.8902 130.538 38.9508 130.538 39.0268H132.015ZM132.193 38.0197L133.589 37.5345L126.224 16.3474L124.828 16.8326L123.432 17.3179L130.797 38.505L132.193 38.0197ZM124.828 16.8326V18.3105H131.166V16.8326V15.3548H124.828V16.8326ZM131.166 16.8326L129.74 17.2206L134.242 33.7675L135.668 33.3795L137.094 32.9915L132.592 16.4446L131.166 16.8326ZM135.668 33.3795V34.8574H135.767V33.3795V31.9017H135.668V33.3795ZM135.767 33.3795L137.193 33.7675L141.695 17.2206L140.269 16.8326L138.843 16.4446L134.341 32.9915L135.767 33.3795ZM140.269 16.8326V18.3105H146.351V16.8326V15.3548H140.269V16.8326ZM146.351 16.8326L144.95 16.3611L137.664 38.0023L139.065 38.4739L140.465 38.9454L147.751 17.3042L146.351 16.8326ZM139.065 38.4739L137.663 38.005C136.799 40.5873 135.813 42.1014 134.595 43.0064C133.386 43.904 131.736 44.3612 129.192 44.3612V45.839V47.3169C132.058 47.3169 134.436 46.8066 136.357 45.3791C138.269 43.959 139.513 41.7905 140.466 38.9428L139.065 38.4739Z" fill="black" mask="url(#path-2-outside-1_1797_2172)"/>
</svg>
